{
  "accessors": [
    {
      "bufferView": 0,
      "componentType": 5126,
      "count": 24,
      "max": [
        2.635734796524048,
        0.5,
        0.5
      ],
      "min": [
        -2.635734796524048,
        -0.5,
        -0.5
      ],
      "type": "VEC3"
    },
    {
      "bufferView": 1,
      "componentType": 5126,
      "count": 24,
      "type": "VEC3"
    },
    {
      "bufferView": 2,
      "componentType": 5126,
      "count": 24,
      "type": "VEC2"
    },
    {
      "bufferView": 3,
      "componentType": 5125,
      "count": 36,
      "type": "SCALAR"
    },
    {
      "bufferView": 4,
      "componentType": 5126,
      "count": 24,
      "max": [
        0.5,
        0.5,
        4.968738555908203
      ],
      "min": [
        -0.5,
        -0.5,
        -4.968738555908203
      ],
      "type": "VEC3"
    },
    {
      "bufferView": 5,
      "componentType": 5126,
      "count": 24,
      "type": "VEC3"
    },
    {
      "bufferView": 6,
      "componentType": 5126,
      "count": 24,
      "type": "VEC2"
    },
    {
      "bufferView": 7,
      "componentType": 5125,
      "count": 36,
      "type": "SCALAR"
    },
    {
      "bufferView": 8,
      "componentType": 5126,
      "count": 24,
      "max": [
        0.5,
        0.5,
        4.968738555908203
      ],
      "min": [
        -0.5,
        -0.5,
        -4.968738555908203
      ],
      "type": "VEC3"
    },
    {
      "bufferView": 9,
      "componentType": 5126,
      "count": 24,
      "type": "VEC3"
    },
    {
      "bufferView": 10,
      "componentType": 5126,
      "count": 24,
      "type": "VEC2"
    },
    {
      "bufferView": 11,
      "componentType": 5125,
      "count": 36,
      "type": "SCALAR"
    },
    {
      "bufferView": 12,
      "componentType": 5126,
      "count": 280,
      "max": [
        7.0,
        0.5,
        7.0
      ],
      "min": [
        -7.0,
        -0.5,
        -7.0
      ],
      "type": "VEC3"
    },
    {
      "bufferView": 13,
      "componentType": 5126,
      "count": 280,
      "type": "VEC3"
    },
    {
      "bufferView": 14,
      "componentType": 5126,
      "count": 280,
      "type": "VEC2"
    },
    {
      "bufferView": 15,
      "componentType": 5125,
      "count": 360,
      "type": "SCALAR"
    },
    {
      "bufferView": 16,
      "componentType": 5126,
      "count": 24,
      "max": [
        4.732138156890869,
        3.1213183403015137,
        0.09859102964401245
      ],
      "min": [
        -4.732138156890869,
        -3.1213183403015137,
        -0.09859484434127808
      ],
      "type": "VEC3"
    },
    {
      "bufferView": 17,
      "componentType": 5126,
      "count": 24,
      "type": "VEC3"
    },
    {
      "bufferView": 18,
      "componentType": 5126,
      "count": 24,
      "type": "VEC2"
    },
    {
      "bufferView": 19,
      "componentType": 5125,
      "count": 36,
      "type": "SCALAR"
    },
    {
      "bufferView": 20,
      "componentType": 5126,
      "count": 24,
      "max": [
        4.754766941070557,
        0.26219919323921204,
        0.09859295189380646
      ],
      "min": [
        -4.754766941070557,
        -0.26219919323921204,
        -0.09859295189380646
      ],
      "type": "VEC3"
    },
    {
      "bufferView": 21,
      "componentType": 5126,
      "count": 24,
      "type": "VEC3"
    },
    {
      "bufferView": 22,
      "componentType": 5126,
      "count": 24,
      "type": "VEC2"
    },
    {
      "bufferView": 23,
      "componentType": 5125,
      "count": 36,
      "type": "SCALAR"
    },
    {
      "bufferView": 24,
      "componentType": 5126,
      "count": 40,
      "max": [
        5.744938850402832,
        4.053859233856201,
        11.318161964416504
      ],
      "min": [
        -5.744938850402832,
        -4.432446479797363,
        -11.318161964416504
      ],
      "type": "VEC3"
    },
    {
      "bufferView": 25,
      "componentType": 5126,
      "count": 40,
      "type": "VEC3"
    },
    {
      "bufferView": 26,
      "componentType": 5126,
      "count": 40,
      "type": "VEC2"
    },
    {
      "bufferView": 27,
      "componentType": 5125,
      "count": 60,
      "type": "SCALAR"
    },
    {
      "bufferView": 28,
      "componentType": 5126,
      "count": 24,
      "max": [
        20.64999771118164,
        0.5,
        0.6750347018241882
      ],
      "min": [
        -20.64999771118164,
        -0.5,
        -0.6750347018241882
      ],
      "type": "VEC3"
    },
    {
      "bufferView": 29,
      "componentType": 5126,
      "count": 24,
      "type": "VEC3"
    },
    {
      "bufferView": 30,
      "componentType": 5126,
      "count": 24,
      "type": "VEC2"
    },
    {
      "bufferView": 31,
      "componentType": 5125,
      "count": 36,
      "type": "SCALAR"
    },
    {
      "bufferView": 32,
      "componentType": 5126,
      "count": 24,
      "max": [
        20.64999771118164,
        0.5,
        0.6750347018241882
      ],
      "min": [
        -20.64999771118164,
        -0.5,
        -0.6750347018241882
      ],
      "type": "VEC3"
    },
    {
      "bufferView": 33,
      "componentType": 5126,
      "count": 24,
      "type": "VEC3"
    },
    {
      "bufferView": 34,
      "componentType": 5126,
      "count": 24,
      "type": "VEC2"
    },
    {
      "bufferView": 35,
      "componentType": 5125,
      "count": 36,
      "type": "SCALAR"
    },
    {
      "bufferView": 36,
      "componentType": 5126,
      "count": 24,
      "max": [
        20.649999618530273,
        0.5,
        0.675034761428833
      ],
      "min": [
        -20.649999618530273,
        -0.5,
        -0.675034761428833
      ],
      "type": "VEC3"
    },
    {
      "bufferView": 37,
      "componentType": 5126,
      "count": 24,
      "type": "VEC3"
    },
    {
      "bufferView": 38,
      "componentType": 5126,
      "count": 24,
      "type": "VEC2"
    },
    {
      "bufferView": 39,
      "componentType": 5125,
      "count": 36,
      "type": "SCALAR"
    },
    {
      "bufferView": 40,
      "componentType": 5126,
      "count": 24,
      "max": [
        20.649999618530273,
        0.5,
        0.675034761428833
      ],
      "min": [
        -20.649999618530273,
        -0.5,
        -0.675034761428833
      ],
      "type": "VEC3"
    },
    {
      "bufferView": 41,
      "componentType": 5126,
      "count": 24,
      "type": "VEC3"
    },
    {
      "bufferView": 42,
      "componentType": 5126,
      "count": 24,
      "type": "VEC2"
    },
    {
      "bufferView": 43,
      "componentType": 5125,
      "count": 36,
      "type": "SCALAR"
    },
    {
      "bufferView": 44,
      "componentType": 5126,
      "count": 24,
      "max": [
        20.0,
        0.5,
        20.0
      ],
      "min": [
        -20.0,
        -0.5,
        -20.0
      ],
      "type": "VEC3"
    },
    {
      "bufferView": 45,
      "componentType": 5126,
      "count": 24,
      "type": "VEC3"
    },
    {
      "bufferView": 46,
      "componentType": 5126,
      "count": 24,
      "type": "VEC2"
    },
    {
      "bufferView": 47,
      "componentType": 5125,
      "count": 36,
      "type": "SCALAR"
    }
  ],
  "asset": {
    "generator": "Prisma3D Pro",
    "version": "2.0"
  },
  "bufferViews": [
    {
      "buffer": 0,
      "byteLength": 288,
      "target": 34962
    },
    {
      "buffer": 1,
      "byteLength": 288,
      "target": 34962
    },
    {
      "buffer": 2,
      "byteLength": 192,
      "target": 34962
    },
    {
      "buffer": 3,
      "byteLength": 144,
      "target": 34963
    },
    {
      "buffer": 4,
      "byteLength": 288,
      "target": 34962
    },
    {
      "buffer": 5,
      "byteLength": 288,
      "target": 34962
    },
    {
      "buffer": 6,
      "byteLength": 192,
      "target": 34962
    },
    {
      "buffer": 7,
      "byteLength": 144,
      "target": 34963
    },
    {
      "buffer": 8,
      "byteLength": 288,
      "target": 34962
    },
    {
      "buffer": 9,
      "byteLength": 288,
      "target": 34962
    },
    {
      "buffer": 10,
      "byteLength": 192,
      "target": 34962
    },
    {
      "buffer": 11,
      "byteLength": 144,
      "target": 34963
    },
    {
      "buffer": 12,
      "byteLength": 3360,
      "target": 34962
    },
    {
      "buffer": 13,
      "byteLength": 3360,
      "target": 34962
    },
    {
      "buffer": 14,
      "byteLength": 2240,
      "target": 34962
    },
    {
      "buffer": 15,
      "byteLength": 1440,
      "target": 34963
    },
    {
      "buffer": 16,
      "byteLength": 288,
      "target": 34962
    },
    {
      "buffer": 17,
      "byteLength": 288,
      "target": 34962
    },
    {
      "buffer": 18,
      "byteLength": 192,
      "target": 34962
    },
    {
      "buffer": 19,
      "byteLength": 144,
      "target": 34963
    },
    {
      "buffer": 20,
      "byteLength": 288,
      "target": 34962
    },
    {
      "buffer": 21,
      "byteLength": 288,
      "target": 34962
    },
    {
      "buffer": 22,
      "byteLength": 192,
      "target": 34962
    },
    {
      "buffer": 23,
      "byteLength": 144,
      "target": 34963
    },
    {
      "buffer": 24,
      "byteLength": 480,
      "target": 34962
    },
    {
      "buffer": 25,
      "byteLength": 480,
      "target": 34962
    },
    {
      "buffer": 26,
      "byteLength": 320,
      "target": 34962
    },
    {
      "buffer": 27,
      "byteLength": 240,
      "target": 34963
    },
    {
      "buffer": 28,
      "byteLength": 288,
      "target": 34962
    },
    {
      "buffer": 29,
      "byteLength": 288,
      "target": 34962
    },
    {
      "buffer": 30,
      "byteLength": 192,
      "target": 34962
    },
    {
      "buffer": 31,
      "byteLength": 144,
      "target": 34963
    },
    {
      "buffer": 32,
      "byteLength": 288,
      "target": 34962
    },
    {
      "buffer": 33,
      "byteLength": 288,
      "target": 34962
    },
    {
      "buffer": 34,
      "byteLength": 192,
      "target": 34962
    },
    {
      "buffer": 35,
      "byteLength": 144,
      "target": 34963
    },
    {
      "buffer": 36,
      "byteLength": 288,
      "target": 34962
    },
    {
      "buffer": 37,
      "byteLength": 288,
      "target": 34962
    },
    {
      "buffer": 38,
      "byteLength": 192,
      "target": 34962
    },
    {
      "buffer": 39,
      "byteLength": 144,
      "target": 34963
    },
    {
      "buffer": 40,
      "byteLength": 288,
      "target": 34962
    },
    {
      "buffer": 41,
      "byteLength": 288,
      "target": 34962
    },
    {
      "buffer": 42,
      "byteLength": 192,
      "target": 34962
    },
    {
      "buffer": 43,
      "byteLength": 144,
      "target": 34963
    },
    {
      "buffer": 44,
      "byteLength": 288,
      "target": 34962
    },
    {
      "buffer": 45,
      "byteLength": 288,
      "target": 34962
    },
    {
      "buffer": 46,
      "byteLength": 192,
      "target": 34962
    },
    {
      "buffer": 47,
      "byteLength": 144,
      "target": 34963
    }
  ],
  "buffers": [
    {
      "byteLength": 288,
      "uri": "data:application/octet-stream;base64,"
    },
    {
      "byteLength": 288,
      "uri": "data:application/octet-stream;base64,"
    },
    {
      "byteLength": 192,
      "uri": "data:application/octet-stream;base64,"
    },
    {
      "byteLength": 144,
      "uri": "data:application/octet-stream;base64,"
    },
    {
      "byteLength": 288,
      "uri": "data:application/octet-stream;base64,"
    },
    {
      "byteLength": 288,
      "uri": "data:application/octet-stream;base64,"
    },
    {
      "byteLength": 192,
      "uri": "data:application/octet-stream;base64,"
    },
    {
      "byteLength": 144,
      "uri": "data:application/octet-stream;base64,"
    },
    {
      "byteLength": 288,
      "uri": "data:application/octet-stream;base64,"
    },
    {
      "byteLength": 288,
      "uri": "data:application/octet-stream;base64,"
    },
    {
      "byteLength": 192,
      "uri": "data:application/octet-stream;base64,"
    },
    {
      "byteLength": 144,
      "uri": "data:application/octet-stream;base64,"
    },
    {
      "byteLength": 3360,
      "uri": "data:application/octet-stream;base64,"
    },
    {
      "byteLength": 3360,
      "uri": "data:application/octet-stream;base64,"
    },
    {
      "byteLength": 2240,
      "uri": "data:application/octet-stream;base64,"
    },
    {
      "byteLength": 1440,
      "uri": "data:application/octet-stream;base64,"
    },
    {
      "byteLength": 288,
      "uri": "data:application/octet-stream;base64,"
    },
    {
      "byteLength": 288,
      "uri": "data:application/octet-stream;base64,"
    },
    {
      "byteLength": 192,
      "uri": "data:application/octet-stream;base64,"
    },
    {
      "byteLength": 144,
      "uri": "data:application/octet-stream;base64,"
    },
    {
      "byteLength": 288,
      "uri": "data:application/octet-stream;base64,"
    },
    {
      "byteLength": 288,
      "uri": "data:application/octet-stream;base64,"
    },
    {
      "byteLength": 192,
      "uri": "data:application/octet-stream;base64,"
    },
    {
      "byteLength": 144,
      "uri": "data:application/octet-stream;base64,"
    },
    {
      "byteLength": 480,
      "uri": "data:application/octet-stream;base64,"
    },
    {
      "byteLength": 480,
      "uri": "data:application/octet-stream;base64,"
    },
    {
      "byteLength": 320,
      "uri": "data:application/octet-stream;base64,"
    },
    {
      "byteLength": 240,
      "uri": "data:application/octet-stream;base64,"
    },
    {
      "byteLength": 288,
      "uri": "data:application/octet-stream;base64,"
    },
    {
      "byteLength": 288,
      "uri": "data:application/octet-stream;base64,"
    },
    {
      "byteLength": 192,
      "uri": "data:application/octet-stream;base64,"
    },
    {
      "byteLength": 144,
      "uri": "data:application/octet-stream;base64,"
    },
    {
      "byteLength": 288,
      "uri": "data:application/octet-stream;base64,"
    },
    {
      "byteLength": 288,
      "uri": "data:application/octet-stream;base64,"
    },
    {
      "byteLength": 192,
      "uri": "data:application/octet-stream;base64,"
    },
    {
      "byteLength": 144,
      "uri": "data:application/octet-stream;base64,"
    },
    {
      "byteLength": 288,
      "uri": "data:application/octet-stream;base64,"
    },
    {
      "byteLength": 288,
      "uri": "data:application/octet-stream;base64,"
    },
    {
      "byteLength": 192,
      "uri": "data:application/octet-stream;base64,"
    },
    {
      "byteLength": 144,
      "uri": "data:application/octet-stream;base64,"
    },
    {
      "byteLength": 288,
      "uri": "data:application/octet-stream;base64,"
    },
    {
      "byteLength": 288,
      "uri": "data:application/octet-stream;base64,"
    },
    {
      "byteLength": 192,
      "uri": "data:application/octet-stream;base64,"
    },
    {
      "byteLength": 144,
      "uri": "data:application/octet-stream;base64,"
    },
    {
      "byteLength": 288,
      "uri": "data:application/octet-stream;base64,"
    },
    {
      "byteLength": 288,
      "uri": "data:application/octet-stream;base64,"
    },
    {
      "byteLength": 192,
      "uri": "data:application/octet-stream;base64,"
    },
    {
      "byteLength": 144,
      "uri": "data:application/octet-stream;base64,"
    }
  ],
  "materials": [
    {
      "doubleSided": true,
      "pbrMetallicRoughness": {
        "metallicFactor": 0.0,
        "roughnessFactor": 0.0
      }
    },
    {
      "doubleSided": true,
      "pbrMetallicRoughness": {
        "metallicFactor": 0.0,
        "roughnessFactor": 0.0
      }
    },
    {
      "doubleSided": true,
      "pbrMetallicRoughness": {
        "metallicFactor": 0.0,
        "roughnessFactor": 0.0
      }
    },
    {
      "doubleSided": true,
      "pbrMetallicRoughness": {
        "baseColorFactor": [
          0.0784313753247261,
          0.0784313753247261,
          0.0784313753247261,
          1.0
        ],
        "metallicFactor": 0.0,
        "roughnessFactor": 0.0
      }
    },
    {
      "doubleSided": true,
      "pbrMetallicRoughness": {
        "baseColorFactor": [
          0.09803921729326248,
          0.09803921729326248,
          0.09803921729326248,
          1.0
        ],
        "metallicFactor": 0.0,
        "roughnessFactor": 0.0
      }
    },
    {
      "doubleSided": true,
      "pbrMetallicRoughness": {
        "baseColorFactor": [
          0.19607843458652496,
          0.19607843458652496,
          0.19607843458652496,
          1.0
        ],
        "metallicFactor": 0.0,
        "roughnessFactor": 0.0
      }
    },
    {
      "doubleSided": true,
      "pbrMetallicRoughness": {
        "baseColorFactor": [
          0.3450980484485626,
          0.3450980484485626,
          0.3450980484485626,
          1.0
        ],
        "metallicFactor": 0.0,
        "roughnessFactor": 0.0
      }
    },
    {
      "doubleSided": true,
      "pbrMetallicRoughness": {
        "baseColorFactor": [
          0.41960784792900085,
          0.41960784792900085,
          0.41960784792900085,
          1.0
        ],
        "metallicFactor": 0.0,
        "roughnessFactor": 0.0
      }
    },
    {
      "doubleSided": true,
      "pbrMetallicRoughness": {
        "baseColorFactor": [
          0.41960784792900085,
          0.41960784792900085,
          0.41960784792900085,
          1.0
        ],
        "metallicFactor": 0.0,
        "roughnessFactor": 0.0
      }
    },
    {
      "doubleSided": true,
      "pbrMetallicRoughness": {
        "baseColorFactor": [
          0.41960784792900085,
          0.41960784792900085,
          0.41960784792900085,
          1.0
        ],
        "metallicFactor": 0.0,
        "roughnessFactor": 0.0
      }
    },
    {
      "doubleSided": true,
      "pbrMetallicRoughness": {
        "baseColorFactor": [
          0.41960784792900085,
          0.41960784792900085,
          0.41960784792900085,
          1.0
        ],
        "metallicFactor": 0.0,
        "roughnessFactor": 0.0
      }
    },
    {
      "doubleSided": true,
      "pbrMetallicRoughness": {
        "baseColorFactor": [
          0.3450980484485626,
          0.3450980484485626,
          0.3450980484485626,
          1.0
        ],
        "metallicFactor": 0.0,
        "roughnessFactor": 0.0
      }
    }
  ],
  "meshes": [
    {
      "primitives": [
        {
          "attributes": {
            "NORMAL": 1,
            "POSITION": 0,
            "TEXCOORD_0": 2
          },
          "indices": 3,
          "material": 0,
          "mode": 4
        }
      ]
    },
    {
      "primitives": [
        {
          "attributes": {
            "NORMAL": 5,
            "POSITION": 4,
            "TEXCOORD_0": 6
          },
          "indices": 7,
          "material": 1,
          "mode": 4
        }
      ]
    },
    {
      "primitives": [
        {
          "attributes": {
            "NORMAL": 9,
            "POSITION": 8,
            "TEXCOORD_0": 10
          },
          "indices": 11,
          "material": 2,
          "mode": 4
        }
      ]
    },
    {
      "primitives": [
        {
          "attributes": {
            "NORMAL": 13,
            "POSITION": 12,
            "TEXCOORD_0": 14
          },
          "indices": 15,
          "material": 3,
          "mode": 4
        }
      ]
    },
    {
      "primitives": [
        {
          "attributes": {
            "NORMAL": 17,
            "POSITION": 16,
            "TEXCOORD_0": 18
          },
          "indices": 19,
          "material": 4,
          "mode": 4
        }
      ]
    },
    {
      "primitives": [
        {
          "attributes": {
            "NORMAL": 21,
            "POSITION": 20,
            "TEXCOORD_0": 22
          },
          "indices": 23,
          "material": 5,
          "mode": 4
        }
      ]
    },
    {
      "primitives": [
        {
          "attributes": {
            "NORMAL": 25,
            "POSITION": 24,
            "TEXCOORD_0": 26
          },
          "indices": 27,
          "material": 6,
          "mode": 4
        }
      ]
    },
    {
      "primitives": [
        {
          "attributes": {
            "NORMAL": 29,
            "POSITION": 28,
            "TEXCOORD_0": 30
          },
          "indices": 31,
          "material": 7,
          "mode": 4
        }
      ]
    },
    {
      "primitives": [
        {
          "attributes": {
            "NORMAL": 33,
            "POSITION": 32,
            "TEXCOORD_0": 34
          },
          "indices": 35,
          "material": 8,
          "mode": 4
        }
      ]
    },
    {
      "primitives": [
        {
          "attributes": {
            "NORMAL": 37,
            "POSITION": 36,
            "TEXCOORD_0": 38
          },
          "indices": 39,
          "material": 9,
          "mode": 4
        }
      ]
    },
    {
      "primitives": [
        {
          "attributes": {
            "NORMAL": 41,
            "POSITION": 40,
            "TEXCOORD_0": 42
          },
          "indices": 43,
          "material": 10,
          "mode": 4
        }
      ]
    },
    {
      "primitives": [
        {
          "attributes": {
            "NORMAL": 45,
            "POSITION": 44,
            "TEXCOORD_0": 46
          },
          "indices": 47,
          "material": 11,
          "mode": 4
        }
      ]
    }
  ],
  "nodes": [
    {
      "name": "天空光",
      "rotation": [
        0.0,
        -0.0,
        -0.0,
        1.0
      ],
      "scale": [
        1.0,
        1.0,
        1.0
      ],
      "translation": [
        -0.0,
        0.0,
        0.0
      ]
    },
    {
      "children": [
        5,
        4,
        3,
        2
      ],
      "name": "停机坪",
      "rotation": [
        0.0,
        -0.0,
        -0.0,
        1.0
      ],
      "scale": [
        1.0,
        1.0,
        1.0
      ],
      "translation": [
        -0.0,
        0.0,
        0.0
      ]
    },
    {
      "mesh": 0,
      "name": "立方体",
      "rotation": [
        0.0,
        -0.0,
        -0.0,
        1.0
      ],
      "scale": [
        1.0,
        1.0,
        1.0
      ],
      "translation": [
        -0.0,
        0.687943696975708,
        0.0
      ]
    },
    {
      "mesh": 1,
      "name": "立方体",
      "rotation": [
        0.0,
        -0.0,
        -0.0,
        1.0
      ],
      "scale": [
        1.0,
        1.0,
        1.0
      ],
      "translation": [
        3.0,
        0.687943696975708,
        0.0
      ]
    },
    {
      "mesh": 2,
      "name": "立方体",
      "rotation": [
        0.0,
        -0.0,
        -0.0,
        1.0
      ],
      "scale": [
        1.0,
        1.0,
        1.0
      ],
      "translation": [
        -3.0,
        0.687943696975708,
        0.0
      ]
    },
    {
      "mesh": 3,
      "name": "圆柱体",
      "rotation": [
        0.0,
        -0.0,
        -0.0,
        1.0
      ],
      "scale": [
        1.0,
        1.0,
        1.0
      ],
      "translation": [
        -0.0,
        0.6779441833496094,
        0.0
      ]
    },
    {
      "children": [
        9,
        8,
        7
      ],
      "name": "机库",
      "rotation": [
        0.0,
        -0.0,
        -0.0,
        1.0
      ],
      "scale": [
        1.0,
        1.0,
        1.0
      ],
      "translation": [
        -14.187487602233887,
        4.322381973266602,
        8.350065231323242
      ]
    },
    {
      "mesh": 4,
      "name": "立方体",
      "rotation": [
        8.940696716308594e-08,
        -0.0,
        -0.0,
        1.0
      ],
      "scale": [
        1.0,
        1.0,
        1.0
      ],
      "translation": [
        0.00048732757568359375,
        -1.0889785289764404,
        -11.219011306762695
      ]
    },
    {
      "mesh": 5,
      "name": "立方体",
      "rotation": [
        5.960465188081798e-08,
        -0.0,
        -7.1054265105680546e-15,
        1.0
      ],
      "scale": [
        1.0,
        1.0,
        1.0
      ],
      "translation": [
        0.00048732757568359375,
        1.786726951599121,
        -11.294794082641602
      ]
    },
    {
      "mesh": 6,
      "name": "立方体",
      "rotation": [
        0.0,
        -0.0,
        -0.0,
        1.0
      ],
      "scale": [
        1.0,
        1.0,
        1.0
      ],
      "translation": [
        -0.0,
        0.18929386138916016,
        0.0752248764038086
      ]
    },
    {
      "children": [
        15,
        14,
        13,
        12,
        11
      ],
      "name": "地面",
      "rotation": [
        0.0,
        -0.0,
        -0.0,
        1.0
      ],
      "scale": [
        1.0,
        1.0,
        1.0
      ],
      "translation": [
        -0.0,
        0.0,
        0.0
      ]
    },
    {
      "mesh": 7,
      "name": "立方体",
      "rotation": [
        0.0,
        -0.7071068286895752,
        -0.0,
        0.7071068286895752
      ],
      "scale": [
        1.0,
        1.0,
        1.0
      ],
      "translation": [
        20.0,
        0.09999769926071167,
        0.0
      ]
    },
    {
      "mesh": 8,
      "name": "立方体",
      "rotation": [
        0.0,
        -0.7071068286895752,
        -0.0,
        0.7071068286895752
      ],
      "scale": [
        1.0,
        1.0,
        1.0
      ],
      "translation": [
        -20.0,
        0.09999769926071167,
        0.0
      ]
    },
    {
      "mesh": 9,
      "name": "立方体",
      "rotation": [
        0.0,
        -0.0,
        -0.0,
        1.0
      ],
      "scale": [
        1.0,
        1.0,
        1.0
      ],
      "translation": [
        -0.0,
        0.09999769926071167,
        -20.0
      ]
    },
    {
      "mesh": 10,
      "name": "立方体",
      "rotation": [
        0.0,
        -0.0,
        -0.0,
        1.0
      ],
      "scale": [
        1.0,
        1.0,
        1.0
      ],
      "translation": [
        -0.0,
        0.09999769926071167,
        20.0
      ]
    },
    {
      "mesh": 11,
      "name": "立方体",
      "rotation": [
        0.0,
        -0.0,
        -0.0,
        1.0
      ],
      "scale": [
        1.0,
        1.0,
        1.0
      ],
      "translation": [
        -0.0,
        -0.04575920104980469,
        0.0
      ]
    }
  ],
  "scenes": [
    {
      "nodes": [
        0,
        1,
        6,
        10
      ]
    }
  ]
}
